# xmcd
#
# Track frame offsets:
#	150
#	21207
#	34613
#	47453
#	66285
#	78870
#	91693
#	113681
#	126033
#	143690
#	160238
#
# Disc length: 2183 seconds
#
# Revision: 1
# Processed by: cddbd v1.5.2PL0 Copyright (c) Steve Scherf et al.
# Submitted via: audiograbber 1.83.01
#
DISCID=7c08850b
DTITLE=The Kingsmen - Missing People
DYEAR=2009
DGENRE=Southern Gospel
TTITLE0=Missing People
TTITLE1=Someday
TTITLE2=They Went To Pray
TTITLE3=Mountain Of Grace
TTITLE4=When It's All Said And Done
TTITLE5=Cheer The Weary Traveler
TTITLE6=God Saw A Cross
TTITLE7=He Picks Up A Beggar On The Way
TTITLE8=God Knows
TTITLE9=He Is The Only One
TTITLE10=Reprise: Someday
EXTD=
EXTT0=
EXTT1=
EXTT2=
EXTT3=
EXTT4=
EXTT5=
EXTT6=
EXTT7=
EXTT8=
EXTT9=
EXTT10=
PLAYORDER=
